<mxfile host="app.diagrams.net" modified="2023-08-13T04:16:21.341Z" agent="Mozilla/5.0 (Windows NT 10.0; Win64; x64) AppleWebKit/537.36 (KHTML, like Gecko) Chrome/115.0.0.0 Safari/537.36 Edg/115.0.1901.188" etag="XL0zRQhYt7om1jLjNqL0" version="21.6.8" type="github">
  <diagram name="第 1 页" id="_g9lXYm47fpT5J8KI27-">
    <mxGraphModel dx="574" dy="1970" grid="1" gridSize="10" guides="1" tooltips="1" connect="1" arrows="1" fold="1" page="1" pageScale="1" pageWidth="827" pageHeight="1169" math="0" shadow="0">
      <root>
        <mxCell id="0" />
        <mxCell id="1" parent="0" />
        <mxCell id="emS_NjglVz8rNLvYVVVI-162" value="" style="rounded=0;whiteSpace=wrap;html=1;" vertex="1" parent="1">
          <mxGeometry x="2181.67" y="-90" width="320" height="1650" as="geometry" />
        </mxCell>
        <mxCell id="emS_NjglVz8rNLvYVVVI-142" value="" style="rounded=0;whiteSpace=wrap;html=1;" vertex="1" parent="1">
          <mxGeometry x="1750" y="-70" width="320" height="1640" as="geometry" />
        </mxCell>
        <mxCell id="emS_NjglVz8rNLvYVVVI-1" value="" style="rounded=0;whiteSpace=wrap;html=1;" vertex="1" parent="1">
          <mxGeometry x="2630.0000000000005" y="-77" width="600" height="360" as="geometry" />
        </mxCell>
        <mxCell id="emS_NjglVz8rNLvYVVVI-2" value="" style="html=1;whiteSpace=wrap;shape=isoCube2;backgroundOutline=1;isoAngle=15;" vertex="1" parent="1">
          <mxGeometry x="2846.57" y="81" width="90" height="100" as="geometry" />
        </mxCell>
        <mxCell id="emS_NjglVz8rNLvYVVVI-3" value="" style="html=1;whiteSpace=wrap;shape=isoCube2;backgroundOutline=1;isoAngle=15;" vertex="1" parent="1">
          <mxGeometry x="2937.57" y="83" width="90" height="100" as="geometry" />
        </mxCell>
        <mxCell id="emS_NjglVz8rNLvYVVVI-4" value="" style="html=1;whiteSpace=wrap;shape=isoCube2;backgroundOutline=1;isoAngle=15;" vertex="1" parent="1">
          <mxGeometry x="2891.57" y="105" width="90" height="100" as="geometry" />
        </mxCell>
        <mxCell id="emS_NjglVz8rNLvYVVVI-5" value="" style="html=1;whiteSpace=wrap;shape=isoCube2;backgroundOutline=1;isoAngle=15;" vertex="1" parent="1">
          <mxGeometry x="2891.57" y="3" width="90" height="100" as="geometry" />
        </mxCell>
        <mxCell id="emS_NjglVz8rNLvYVVVI-6" value="" style="html=1;whiteSpace=wrap;shape=isoCube2;backgroundOutline=1;isoAngle=15;" vertex="1" parent="1">
          <mxGeometry x="2846.57" y="24" width="90" height="100" as="geometry" />
        </mxCell>
        <mxCell id="emS_NjglVz8rNLvYVVVI-7" value="" style="html=1;whiteSpace=wrap;shape=isoCube2;backgroundOutline=1;isoAngle=15;" vertex="1" parent="1">
          <mxGeometry x="2937.57" y="25" width="90" height="100" as="geometry" />
        </mxCell>
        <mxCell id="emS_NjglVz8rNLvYVVVI-8" value="" style="html=1;whiteSpace=wrap;shape=isoCube2;backgroundOutline=1;isoAngle=15;strokeColor=#10739e;fillColor=#b1ddf0;strokeWidth=3;dashed=1;" vertex="1" parent="1">
          <mxGeometry x="2890.57" y="53" width="90" height="100" as="geometry" />
        </mxCell>
        <mxCell id="emS_NjglVz8rNLvYVVVI-9" value="&lt;font size=&quot;1&quot; face=&quot;Comic Sans MS&quot;&gt;&lt;b style=&quot;font-size: 16px;&quot;&gt;Commutate&lt;/b&gt;&lt;/font&gt;" style="html=1;whiteSpace=wrap;shape=label;backgroundOutline=1;isoAngle=15;rounded=1;strokeWidth=2;fillWeight=4;hachureGap=8;hachureAngle=45;fillColor=#b0e3e6;sketch=1;arcSize=50;strokeColor=#0e8088;dashed=1;" vertex="1" parent="1">
          <mxGeometry x="3096.57" y="51.440000000000055" width="90" height="30" as="geometry" />
        </mxCell>
        <mxCell id="emS_NjglVz8rNLvYVVVI-11" value="&lt;font color=&quot;#009999&quot; size=&quot;1&quot; face=&quot;Comic Sans MS&quot;&gt;&lt;b style=&quot;&quot;&gt;Commutate&lt;br&gt;&lt;/b&gt;&lt;/font&gt;" style="html=1;whiteSpace=wrap;shape=label;backgroundOutline=1;isoAngle=15;rounded=1;strokeWidth=2;fillWeight=4;hachureGap=8;hachureAngle=45;fillColor=none;sketch=1;arcSize=50;strokeColor=none;" vertex="1" parent="1">
          <mxGeometry x="2850" y="-58.56" width="160" height="30" as="geometry" />
        </mxCell>
        <mxCell id="emS_NjglVz8rNLvYVVVI-12" value="" style="endArrow=classic;html=1;rounded=1;exitX=0;exitY=0.5;exitDx=0;exitDy=0;strokeWidth=3;dashed=1;strokeColor=#10739E;" edge="1" parent="1" source="emS_NjglVz8rNLvYVVVI-9" target="emS_NjglVz8rNLvYVVVI-8">
          <mxGeometry width="50" height="50" relative="1" as="geometry">
            <mxPoint x="3066.57" y="224.44000000000005" as="sourcePoint" />
            <mxPoint x="3116.57" y="174.44000000000008" as="targetPoint" />
            <Array as="points" />
          </mxGeometry>
        </mxCell>
        <mxCell id="emS_NjglVz8rNLvYVVVI-28" value="&lt;font size=&quot;1&quot; style=&quot;&quot; face=&quot;Comic Sans MS&quot;&gt;&lt;b style=&quot;&quot;&gt;Diagonal&lt;/b&gt;&lt;/font&gt;" style="html=1;whiteSpace=wrap;shape=label;backgroundOutline=1;isoAngle=15;rounded=1;strokeWidth=2;fillWeight=4;hachureGap=8;hachureAngle=45;fillColor=#fff2cc;sketch=1;arcSize=50;strokeColor=#d6b656;dashed=1;" vertex="1" parent="1">
          <mxGeometry x="2696.57" y="109.99999999999991" width="90" height="30" as="geometry" />
        </mxCell>
        <mxCell id="emS_NjglVz8rNLvYVVVI-42" value="&lt;font face=&quot;Comic Sans MS&quot; style=&quot;font-size: 20px;&quot;&gt;&lt;b&gt;Restart&lt;/b&gt;&lt;/font&gt;" style="html=1;whiteSpace=wrap;shape=label;backgroundOutline=1;isoAngle=15;rounded=1;strokeWidth=2;fillWeight=4;hachureGap=8;hachureAngle=45;fillColor=#fad9d5;sketch=1;arcSize=50;strokeColor=#ae4132;dashed=1;" vertex="1" parent="1">
          <mxGeometry x="2895.81" y="222.88" width="90" height="30" as="geometry" />
        </mxCell>
        <mxCell id="emS_NjglVz8rNLvYVVVI-72" value="" style="html=1;whiteSpace=wrap;aspect=fixed;shape=rhombus;perimeter=rhombusPerimeter;strokeWidth=2;fillWeight=-1;hachureGap=8;fillStyle=solid;fillColor=#e1d5e7;sketch=1;strokeColor=#9673a6;" vertex="1" parent="1">
          <mxGeometry x="1410" y="13.389999999999999" width="233.33" height="140" as="geometry" />
        </mxCell>
        <mxCell id="emS_NjglVz8rNLvYVVVI-73" value="" style="html=1;whiteSpace=wrap;aspect=fixed;shape=rhombus;rotation=-120;fillColor=#fad7ac;strokeColor=#b46504;perimeter=rhombusPerimeter;strokeWidth=2;fillWeight=-1;hachureGap=8;fillStyle=solid;sketch=1;" vertex="1" parent="1">
          <mxGeometry x="1360" y="117.27999999999987" width="220" height="132" as="geometry" />
        </mxCell>
        <mxCell id="emS_NjglVz8rNLvYVVVI-74" value="" style="html=1;whiteSpace=wrap;aspect=fixed;shape=rhombus;rotation=120;fillColor=#dae8fc;strokeColor=#6c8ebf;perimeter=rhombusPerimeter;strokeWidth=2;fillWeight=-1;hachureGap=8;fillStyle=solid;sketch=1;" vertex="1" parent="1">
          <mxGeometry x="1470" y="116.78" width="221.67" height="133" as="geometry" />
        </mxCell>
        <mxCell id="emS_NjglVz8rNLvYVVVI-93" value="" style="html=1;whiteSpace=wrap;aspect=fixed;shape=rhombus;perimeter=rhombusPerimeter;strokeWidth=2;fillWeight=-1;hachureGap=8;fillStyle=solid;fillColor=#d5e8d4;sketch=1;strokeColor=#82b366;" vertex="1" parent="1">
          <mxGeometry x="1410" y="303.46" width="233.33" height="140" as="geometry" />
        </mxCell>
        <mxCell id="emS_NjglVz8rNLvYVVVI-81" value="" style="html=1;whiteSpace=wrap;aspect=fixed;shape=rhombus;rotation=120;fillColor=#f8cecc;strokeColor=#b85450;perimeter=rhombusPerimeter;strokeWidth=2;fillWeight=-1;hachureGap=8;fillStyle=solid;sketch=1;" vertex="1" parent="1">
          <mxGeometry x="1470" y="303.46" width="221.67" height="133" as="geometry" />
        </mxCell>
        <mxCell id="emS_NjglVz8rNLvYVVVI-80" value="" style="html=1;whiteSpace=wrap;aspect=fixed;shape=rhombus;rotation=-120;fillColor=#f5f5f5;strokeColor=#666666;perimeter=rhombusPerimeter;strokeWidth=2;fillWeight=-1;hachureGap=8;fillStyle=solid;sketch=1;fontColor=#333333;" vertex="1" parent="1">
          <mxGeometry x="1360" y="304.45999999999987" width="220" height="132" as="geometry" />
        </mxCell>
        <mxCell id="emS_NjglVz8rNLvYVVVI-98" value="" style="html=1;whiteSpace=wrap;aspect=fixed;shape=rhombus;perimeter=rhombusPerimeter;strokeWidth=2;fillWeight=-1;hachureGap=8;fillStyle=solid;fillColor=#e1d5e7;sketch=1;strokeColor=#9673a6;" vertex="1" parent="1">
          <mxGeometry x="1800" y="20.54" width="233.33" height="140" as="geometry" />
        </mxCell>
        <mxCell id="emS_NjglVz8rNLvYVVVI-99" value="" style="html=1;whiteSpace=wrap;aspect=fixed;shape=rhombus;rotation=-120;fillColor=#fad7ac;strokeColor=#b46504;perimeter=rhombusPerimeter;strokeWidth=2;fillWeight=-1;hachureGap=8;fillStyle=solid;sketch=1;" vertex="1" parent="1">
          <mxGeometry x="1750" y="124.42999999999988" width="220" height="132" as="geometry" />
        </mxCell>
        <mxCell id="emS_NjglVz8rNLvYVVVI-100" value="" style="html=1;whiteSpace=wrap;aspect=fixed;shape=rhombus;rotation=120;fillColor=#dae8fc;strokeColor=#6c8ebf;perimeter=rhombusPerimeter;strokeWidth=2;fillWeight=-1;hachureGap=8;fillStyle=solid;sketch=1;" vertex="1" parent="1">
          <mxGeometry x="1860" y="123.93" width="221.67" height="133" as="geometry" />
        </mxCell>
        <mxCell id="emS_NjglVz8rNLvYVVVI-101" value="" style="html=1;whiteSpace=wrap;aspect=fixed;shape=rhombus;perimeter=rhombusPerimeter;strokeWidth=2;fillWeight=-1;hachureGap=8;fillStyle=solid;fillColor=#d5e8d4;sketch=1;strokeColor=#82b366;" vertex="1" parent="1">
          <mxGeometry x="1800" y="289.99999999999994" width="233.33" height="140" as="geometry" />
        </mxCell>
        <mxCell id="emS_NjglVz8rNLvYVVVI-102" value="" style="html=1;whiteSpace=wrap;aspect=fixed;shape=rhombus;rotation=120;fillColor=#f8cecc;strokeColor=#b85450;perimeter=rhombusPerimeter;strokeWidth=2;fillWeight=-1;hachureGap=8;fillStyle=solid;sketch=1;" vertex="1" parent="1">
          <mxGeometry x="1860.01" y="270.5799999999999" width="221.67" height="133" as="geometry" />
        </mxCell>
        <mxCell id="emS_NjglVz8rNLvYVVVI-103" value="" style="html=1;whiteSpace=wrap;aspect=fixed;shape=rhombus;rotation=-120;fillColor=#f5f5f5;strokeColor=#666666;perimeter=rhombusPerimeter;strokeWidth=2;fillWeight=-1;hachureGap=8;fillStyle=solid;sketch=1;fontColor=#333333;" vertex="1" parent="1">
          <mxGeometry x="1749.17" y="270.5799999999998" width="220" height="132" as="geometry" />
        </mxCell>
        <mxCell id="emS_NjglVz8rNLvYVVVI-104" value="" style="ellipse;shape=cloud;whiteSpace=wrap;html=1;" vertex="1" parent="1">
          <mxGeometry x="1945.8400000000001" y="165.58" width="50" height="40" as="geometry" />
        </mxCell>
        <mxCell id="emS_NjglVz8rNLvYVVVI-105" value="" style="ellipse;shape=cloud;whiteSpace=wrap;html=1;" vertex="1" parent="1">
          <mxGeometry x="1955.0100000000002" y="316.58" width="50" height="40" as="geometry" />
        </mxCell>
        <mxCell id="emS_NjglVz8rNLvYVVVI-120" value="" style="html=1;whiteSpace=wrap;aspect=fixed;shape=rhombus;perimeter=rhombusPerimeter;strokeWidth=2;fillWeight=-1;hachureGap=8;fillStyle=solid;fillColor=#e1d5e7;sketch=1;strokeColor=#9673a6;" vertex="1" parent="1">
          <mxGeometry x="2220" y="20.54" width="233.33" height="140" as="geometry" />
        </mxCell>
        <mxCell id="emS_NjglVz8rNLvYVVVI-121" value="" style="html=1;whiteSpace=wrap;aspect=fixed;shape=rhombus;rotation=-120;fillColor=#fad7ac;strokeColor=#b46504;perimeter=rhombusPerimeter;strokeWidth=2;fillWeight=-1;hachureGap=8;fillStyle=solid;sketch=1;" vertex="1" parent="1">
          <mxGeometry x="2170" y="124.4299999999999" width="220" height="132" as="geometry" />
        </mxCell>
        <mxCell id="emS_NjglVz8rNLvYVVVI-122" value="" style="html=1;whiteSpace=wrap;aspect=fixed;shape=rhombus;rotation=120;fillColor=#dae8fc;strokeColor=#6c8ebf;perimeter=rhombusPerimeter;strokeWidth=2;fillWeight=-1;hachureGap=8;fillStyle=solid;sketch=1;" vertex="1" parent="1">
          <mxGeometry x="2280" y="123.93" width="221.67" height="133" as="geometry" />
        </mxCell>
        <mxCell id="emS_NjglVz8rNLvYVVVI-123" value="" style="html=1;whiteSpace=wrap;aspect=fixed;shape=rhombus;perimeter=rhombusPerimeter;strokeWidth=2;fillWeight=-1;hachureGap=8;fillStyle=solid;fillColor=#d5e8d4;sketch=1;strokeColor=#82b366;" vertex="1" parent="1">
          <mxGeometry x="2220" y="310.60999999999996" width="233.33" height="140" as="geometry" />
        </mxCell>
        <mxCell id="emS_NjglVz8rNLvYVVVI-124" value="" style="html=1;whiteSpace=wrap;aspect=fixed;shape=rhombus;rotation=120;fillColor=#f8cecc;strokeColor=#b85450;perimeter=rhombusPerimeter;strokeWidth=2;fillWeight=-1;hachureGap=8;fillStyle=solid;sketch=1;" vertex="1" parent="1">
          <mxGeometry x="2280" y="310.60999999999996" width="221.67" height="133" as="geometry" />
        </mxCell>
        <mxCell id="emS_NjglVz8rNLvYVVVI-125" value="" style="html=1;whiteSpace=wrap;aspect=fixed;shape=rhombus;rotation=-120;fillColor=#f5f5f5;strokeColor=#666666;perimeter=rhombusPerimeter;strokeWidth=2;fillWeight=-1;hachureGap=8;fillStyle=solid;sketch=1;fontColor=#333333;" vertex="1" parent="1">
          <mxGeometry x="2170" y="311.60999999999984" width="220" height="132" as="geometry" />
        </mxCell>
        <mxCell id="emS_NjglVz8rNLvYVVVI-126" value="" style="ellipse;shape=cloud;whiteSpace=wrap;html=1;" vertex="1" parent="1">
          <mxGeometry x="2250" y="165.58" width="50" height="40" as="geometry" />
        </mxCell>
        <mxCell id="emS_NjglVz8rNLvYVVVI-127" value="" style="ellipse;shape=cloud;whiteSpace=wrap;html=1;" vertex="1" parent="1">
          <mxGeometry x="2250" y="363.58" width="50" height="40" as="geometry" />
        </mxCell>
        <mxCell id="emS_NjglVz8rNLvYVVVI-134" value="" style="html=1;whiteSpace=wrap;aspect=fixed;shape=rhombus;perimeter=rhombusPerimeter;strokeWidth=2;fillWeight=-1;hachureGap=8;fillStyle=solid;fillColor=#e1d5e7;sketch=1;strokeColor=#9673a6;" vertex="1" parent="1">
          <mxGeometry x="1800" y="657.3" width="233.33" height="140" as="geometry" />
        </mxCell>
        <mxCell id="emS_NjglVz8rNLvYVVVI-135" value="" style="html=1;whiteSpace=wrap;aspect=fixed;shape=rhombus;rotation=-120;fillColor=#fad7ac;strokeColor=#b46504;perimeter=rhombusPerimeter;strokeWidth=2;fillWeight=-1;hachureGap=8;fillStyle=solid;sketch=1;" vertex="1" parent="1">
          <mxGeometry x="1750" y="761.1899999999998" width="220" height="132" as="geometry" />
        </mxCell>
        <mxCell id="emS_NjglVz8rNLvYVVVI-136" value="" style="html=1;whiteSpace=wrap;aspect=fixed;shape=rhombus;rotation=120;fillColor=#dae8fc;strokeColor=#6c8ebf;perimeter=rhombusPerimeter;strokeWidth=2;fillWeight=-1;hachureGap=8;fillStyle=solid;sketch=1;" vertex="1" parent="1">
          <mxGeometry x="1860" y="760.69" width="221.67" height="133" as="geometry" />
        </mxCell>
        <mxCell id="emS_NjglVz8rNLvYVVVI-137" value="" style="html=1;whiteSpace=wrap;aspect=fixed;shape=rhombus;perimeter=rhombusPerimeter;strokeWidth=2;fillWeight=-1;hachureGap=8;fillStyle=solid;fillColor=#d5e8d4;sketch=1;strokeColor=#82b366;" vertex="1" parent="1">
          <mxGeometry x="1800" y="617.6599999999999" width="233.33" height="140" as="geometry" />
        </mxCell>
        <mxCell id="emS_NjglVz8rNLvYVVVI-138" value="" style="html=1;whiteSpace=wrap;aspect=fixed;shape=rhombus;rotation=120;fillColor=#f8cecc;strokeColor=#b85450;perimeter=rhombusPerimeter;strokeWidth=2;fillWeight=-1;hachureGap=8;fillStyle=solid;sketch=1;" vertex="1" parent="1">
          <mxGeometry x="1859.17" y="607.6199999999999" width="221.67" height="133" as="geometry" />
        </mxCell>
        <mxCell id="emS_NjglVz8rNLvYVVVI-139" value="" style="html=1;whiteSpace=wrap;aspect=fixed;shape=rhombus;rotation=-120;fillColor=#f5f5f5;strokeColor=#666666;perimeter=rhombusPerimeter;strokeWidth=2;fillWeight=-1;hachureGap=8;fillStyle=solid;sketch=1;fontColor=#333333;" vertex="1" parent="1">
          <mxGeometry x="1749.17" y="608.6199999999999" width="220" height="132" as="geometry" />
        </mxCell>
        <mxCell id="emS_NjglVz8rNLvYVVVI-140" value="" style="ellipse;shape=cloud;whiteSpace=wrap;html=1;" vertex="1" parent="1">
          <mxGeometry x="1945.8400000000001" y="802.3400000000001" width="50" height="40" as="geometry" />
        </mxCell>
        <mxCell id="emS_NjglVz8rNLvYVVVI-141" value="" style="ellipse;shape=cloud;whiteSpace=wrap;html=1;" vertex="1" parent="1">
          <mxGeometry x="1955.0100000000002" y="660.5899999999999" width="50" height="40" as="geometry" />
        </mxCell>
        <mxCell id="emS_NjglVz8rNLvYVVVI-147" value="" style="html=1;whiteSpace=wrap;aspect=fixed;shape=rhombus;perimeter=rhombusPerimeter;strokeWidth=2;fillWeight=-1;hachureGap=8;fillStyle=solid;fillColor=#dae8fc;sketch=1;strokeColor=#6c8ebf;" vertex="1" parent="1">
          <mxGeometry x="1801.24" y="1281.55" width="233.33" height="140" as="geometry" />
        </mxCell>
        <mxCell id="emS_NjglVz8rNLvYVVVI-148" value="" style="html=1;whiteSpace=wrap;aspect=fixed;shape=rhombus;rotation=-120;fillColor=#fad7ac;strokeColor=#b46504;perimeter=rhombusPerimeter;strokeWidth=2;fillWeight=-1;hachureGap=8;fillStyle=solid;sketch=1;" vertex="1" parent="1">
          <mxGeometry x="1750.41" y="1282.55" width="220" height="132" as="geometry" />
        </mxCell>
        <mxCell id="emS_NjglVz8rNLvYVVVI-149" value="" style="html=1;whiteSpace=wrap;aspect=fixed;shape=rhombus;rotation=120;fillColor=#e1d5e7;strokeColor=#9673a6;perimeter=rhombusPerimeter;strokeWidth=2;fillWeight=-1;hachureGap=8;fillStyle=solid;sketch=1;" vertex="1" parent="1">
          <mxGeometry x="1861.24" y="1281.5500000000002" width="221.67" height="133" as="geometry" />
        </mxCell>
        <mxCell id="emS_NjglVz8rNLvYVVVI-150" value="" style="html=1;whiteSpace=wrap;aspect=fixed;shape=rhombus;perimeter=rhombusPerimeter;strokeWidth=2;fillWeight=-1;hachureGap=8;fillStyle=solid;fillColor=#f8cecc;sketch=1;strokeColor=#b85450;" vertex="1" parent="1">
          <mxGeometry x="1801.24" y="990" width="233.33" height="140" as="geometry" />
        </mxCell>
        <mxCell id="emS_NjglVz8rNLvYVVVI-151" value="" style="html=1;whiteSpace=wrap;aspect=fixed;shape=rhombus;rotation=120;fillColor=#d5e8d4;strokeColor=#82b366;perimeter=rhombusPerimeter;strokeWidth=2;fillWeight=-1;hachureGap=8;fillStyle=solid;sketch=1;" vertex="1" parent="1">
          <mxGeometry x="1861.24" y="1097.09" width="221.67" height="133" as="geometry" />
        </mxCell>
        <mxCell id="emS_NjglVz8rNLvYVVVI-152" value="" style="html=1;whiteSpace=wrap;aspect=fixed;shape=rhombus;rotation=-120;fillColor=#f5f5f5;strokeColor=#666666;perimeter=rhombusPerimeter;strokeWidth=2;fillWeight=-1;hachureGap=8;fillStyle=solid;sketch=1;fontColor=#333333;" vertex="1" parent="1">
          <mxGeometry x="1750.41" y="1097.09" width="220" height="132" as="geometry" />
        </mxCell>
        <mxCell id="emS_NjglVz8rNLvYVVVI-153" value="" style="ellipse;shape=cloud;whiteSpace=wrap;html=1;" vertex="1" parent="1">
          <mxGeometry x="1886.24" y="1270" width="23.76" height="18.45" as="geometry" />
        </mxCell>
        <mxCell id="emS_NjglVz8rNLvYVVVI-154" value="" style="ellipse;shape=cloud;whiteSpace=wrap;html=1;" vertex="1" parent="1">
          <mxGeometry x="1897.0800000000002" y="1034.21" width="50" height="40" as="geometry" />
        </mxCell>
        <mxCell id="emS_NjglVz8rNLvYVVVI-156" value="" style="html=1;shadow=0;dashed=0;align=center;verticalAlign=middle;shape=mxgraph.arrows2.uTurnArrow;dy=11;arrowHead=43;dx2=25;rotation=-165;fillColor=#60a917;fontColor=#ffffff;strokeColor=#2D7600;" vertex="1" parent="1">
          <mxGeometry x="2060" y="784.47" width="50" height="85.44" as="geometry" />
        </mxCell>
        <mxCell id="emS_NjglVz8rNLvYVVVI-157" value="" style="html=1;shadow=0;dashed=0;align=center;verticalAlign=middle;shape=mxgraph.arrows2.uTurnArrow;dy=11;arrowHead=43;dx2=25;rotation=-15;flipH=1;fillColor=#60a917;fontColor=#ffffff;strokeColor=#2D7600;" vertex="1" parent="1">
          <mxGeometry x="2048.5899999999997" y="587.12" width="50" height="90.04" as="geometry" />
        </mxCell>
        <mxCell id="emS_NjglVz8rNLvYVVVI-161" value="" style="html=1;shadow=0;dashed=0;align=center;verticalAlign=middle;shape=mxgraph.arrows2.twoWayArrow;dy=0.65;dx=22;rotation=-90;fillColor=#60a917;fontColor=#ffffff;strokeColor=#2D7600;" vertex="1" parent="1">
          <mxGeometry x="1987.59" y="210.57999999999998" width="172" height="60" as="geometry" />
        </mxCell>
        <mxCell id="emS_NjglVz8rNLvYVVVI-163" value="" style="html=1;whiteSpace=wrap;aspect=fixed;shape=rhombus;perimeter=rhombusPerimeter;strokeWidth=2;fillWeight=-1;hachureGap=8;fillStyle=solid;fillColor=#e1d5e7;sketch=1;strokeColor=#9673a6;" vertex="1" parent="1">
          <mxGeometry x="2240.83" y="663.28" width="233.33" height="140" as="geometry" />
        </mxCell>
        <mxCell id="emS_NjglVz8rNLvYVVVI-164" value="" style="html=1;whiteSpace=wrap;aspect=fixed;shape=rhombus;rotation=-120;fillColor=#fad7ac;strokeColor=#b46504;perimeter=rhombusPerimeter;strokeWidth=2;fillWeight=-1;hachureGap=8;fillStyle=solid;sketch=1;" vertex="1" parent="1">
          <mxGeometry x="2190.83" y="767.1699999999998" width="220" height="132" as="geometry" />
        </mxCell>
        <mxCell id="emS_NjglVz8rNLvYVVVI-165" value="" style="html=1;whiteSpace=wrap;aspect=fixed;shape=rhombus;rotation=120;fillColor=#dae8fc;strokeColor=#6c8ebf;perimeter=rhombusPerimeter;strokeWidth=2;fillWeight=-1;hachureGap=8;fillStyle=solid;sketch=1;" vertex="1" parent="1">
          <mxGeometry x="2300.83" y="766.6700000000001" width="221.67" height="133" as="geometry" />
        </mxCell>
        <mxCell id="emS_NjglVz8rNLvYVVVI-166" value="" style="html=1;whiteSpace=wrap;aspect=fixed;shape=rhombus;perimeter=rhombusPerimeter;strokeWidth=2;fillWeight=-1;hachureGap=8;fillStyle=solid;fillColor=#d5e8d4;sketch=1;strokeColor=#82b366;" vertex="1" parent="1">
          <mxGeometry x="2240.83" y="623.6399999999999" width="233.33" height="140" as="geometry" />
        </mxCell>
        <mxCell id="emS_NjglVz8rNLvYVVVI-167" value="" style="html=1;whiteSpace=wrap;aspect=fixed;shape=rhombus;rotation=120;fillColor=#f8cecc;strokeColor=#b85450;perimeter=rhombusPerimeter;strokeWidth=2;fillWeight=-1;hachureGap=8;fillStyle=solid;sketch=1;" vertex="1" parent="1">
          <mxGeometry x="2300" y="613.5999999999999" width="221.67" height="133" as="geometry" />
        </mxCell>
        <mxCell id="emS_NjglVz8rNLvYVVVI-168" value="" style="html=1;whiteSpace=wrap;aspect=fixed;shape=rhombus;rotation=-120;fillColor=#f5f5f5;strokeColor=#666666;perimeter=rhombusPerimeter;strokeWidth=2;fillWeight=-1;hachureGap=8;fillStyle=solid;sketch=1;fontColor=#333333;" vertex="1" parent="1">
          <mxGeometry x="2190" y="614.5999999999999" width="220" height="132" as="geometry" />
        </mxCell>
        <mxCell id="emS_NjglVz8rNLvYVVVI-169" value="" style="ellipse;shape=cloud;whiteSpace=wrap;html=1;" vertex="1" parent="1">
          <mxGeometry x="2270" y="657.3" width="50" height="40" as="geometry" />
        </mxCell>
        <mxCell id="emS_NjglVz8rNLvYVVVI-170" value="" style="ellipse;shape=cloud;whiteSpace=wrap;html=1;" vertex="1" parent="1">
          <mxGeometry x="2270" y="834.66" width="50" height="40" as="geometry" />
        </mxCell>
        <mxCell id="emS_NjglVz8rNLvYVVVI-171" value="" style="html=1;shadow=0;dashed=0;align=center;verticalAlign=middle;shape=mxgraph.arrows2.uTurnArrow;dy=11;arrowHead=43;dx2=25;rotation=-15;flipH=0;fillColor=#60a917;fontColor=#ffffff;strokeColor=#2D7600;" vertex="1" parent="1">
          <mxGeometry x="2170" y="610.55" width="50" height="90.04" as="geometry" />
        </mxCell>
        <mxCell id="emS_NjglVz8rNLvYVVVI-172" value="" style="html=1;shadow=0;dashed=0;align=center;verticalAlign=middle;shape=mxgraph.arrows2.uTurnArrow;dy=11;arrowHead=43;dx2=25;rotation=-165;fillColor=#60a917;fontColor=#ffffff;strokeColor=#2D7600;flipH=1;" vertex="1" parent="1">
          <mxGeometry x="2182.5" y="767.28" width="50" height="85.44" as="geometry" />
        </mxCell>
        <mxCell id="emS_NjglVz8rNLvYVVVI-173" value="" style="html=1;whiteSpace=wrap;aspect=fixed;shape=rhombus;perimeter=rhombusPerimeter;strokeWidth=2;fillWeight=-1;hachureGap=8;fillStyle=solid;fillColor=#ffe6cc;sketch=1;strokeColor=#d79b00;" vertex="1" parent="1">
          <mxGeometry x="2231.26" y="1251" width="233.33" height="140" as="geometry" />
        </mxCell>
        <mxCell id="emS_NjglVz8rNLvYVVVI-174" value="" style="html=1;whiteSpace=wrap;aspect=fixed;shape=rhombus;rotation=-120;fillColor=#e1d5e7;strokeColor=#9673a6;perimeter=rhombusPerimeter;strokeWidth=2;fillWeight=-1;hachureGap=8;fillStyle=solid;sketch=1;" vertex="1" parent="1">
          <mxGeometry x="2181.67" y="1262.5499999999997" width="220" height="132" as="geometry" />
        </mxCell>
        <mxCell id="emS_NjglVz8rNLvYVVVI-175" value="" style="html=1;whiteSpace=wrap;aspect=fixed;shape=rhombus;rotation=120;fillColor=#dae8fc;strokeColor=#6c8ebf;perimeter=rhombusPerimeter;strokeWidth=2;fillWeight=-1;hachureGap=8;fillStyle=solid;sketch=1;" vertex="1" parent="1">
          <mxGeometry x="2291.67" y="1261.0000000000002" width="221.67" height="133" as="geometry" />
        </mxCell>
        <mxCell id="emS_NjglVz8rNLvYVVVI-176" value="" style="html=1;whiteSpace=wrap;aspect=fixed;shape=rhombus;perimeter=rhombusPerimeter;strokeWidth=2;fillWeight=-1;hachureGap=8;fillStyle=solid;sketch=1;fillColor=#f5f5f5;fontColor=#333333;strokeColor=#666666;" vertex="1" parent="1">
          <mxGeometry x="2232.5" y="970" width="233.33" height="140" as="geometry" />
        </mxCell>
        <mxCell id="emS_NjglVz8rNLvYVVVI-177" value="" style="html=1;whiteSpace=wrap;aspect=fixed;shape=rhombus;rotation=120;fillColor=#f8cecc;strokeColor=#b85450;perimeter=rhombusPerimeter;strokeWidth=2;fillWeight=-1;hachureGap=8;fillStyle=solid;sketch=1;" vertex="1" parent="1">
          <mxGeometry x="2291.67" y="1076.38" width="221.67" height="133" as="geometry" />
        </mxCell>
        <mxCell id="emS_NjglVz8rNLvYVVVI-178" value="" style="html=1;whiteSpace=wrap;aspect=fixed;shape=rhombus;rotation=-120;fillColor=#d5e8d4;strokeColor=#82b366;perimeter=rhombusPerimeter;strokeWidth=2;fillWeight=-1;hachureGap=8;fillStyle=solid;sketch=1;" vertex="1" parent="1">
          <mxGeometry x="2181.67" y="1077.38" width="220" height="132" as="geometry" />
        </mxCell>
        <mxCell id="emS_NjglVz8rNLvYVVVI-179" value="" style="ellipse;shape=cloud;whiteSpace=wrap;html=1;" vertex="1" parent="1">
          <mxGeometry x="2321.25" y="1081.69" width="43.33" height="34.62" as="geometry" />
        </mxCell>
        <mxCell id="emS_NjglVz8rNLvYVVVI-180" value="" style="ellipse;shape=cloud;whiteSpace=wrap;html=1;" vertex="1" parent="1">
          <mxGeometry x="2330.64" y="1254.1" width="34.58" height="28.45" as="geometry" />
        </mxCell>
        <mxCell id="emS_NjglVz8rNLvYVVVI-182" value="" style="html=1;shadow=0;dashed=0;align=center;verticalAlign=middle;shape=mxgraph.arrows2.twoWayArrow;dy=0.65;dx=22;rotation=-90;fillColor=#60a917;fontColor=#ffffff;strokeColor=#2D7600;" vertex="1" parent="1">
          <mxGeometry x="2410.83" y="204.99999999999997" width="172" height="60" as="geometry" />
        </mxCell>
        <mxCell id="emS_NjglVz8rNLvYVVVI-183" value="" style="rounded=0;whiteSpace=wrap;html=1;" vertex="1" parent="1">
          <mxGeometry x="2630.0000000000005" y="317.16" width="600" height="360" as="geometry" />
        </mxCell>
        <mxCell id="emS_NjglVz8rNLvYVVVI-184" value="" style="html=1;whiteSpace=wrap;shape=isoCube2;backgroundOutline=1;isoAngle=15;" vertex="1" parent="1">
          <mxGeometry x="2846.57" y="475.16" width="90" height="100" as="geometry" />
        </mxCell>
        <mxCell id="emS_NjglVz8rNLvYVVVI-185" value="" style="html=1;whiteSpace=wrap;shape=isoCube2;backgroundOutline=1;isoAngle=15;" vertex="1" parent="1">
          <mxGeometry x="2937.57" y="477.16" width="90" height="100" as="geometry" />
        </mxCell>
        <mxCell id="emS_NjglVz8rNLvYVVVI-186" value="" style="html=1;whiteSpace=wrap;shape=isoCube2;backgroundOutline=1;isoAngle=15;" vertex="1" parent="1">
          <mxGeometry x="2891.57" y="499.16" width="90" height="100" as="geometry" />
        </mxCell>
        <mxCell id="emS_NjglVz8rNLvYVVVI-187" value="" style="html=1;whiteSpace=wrap;shape=isoCube2;backgroundOutline=1;isoAngle=15;" vertex="1" parent="1">
          <mxGeometry x="2891.57" y="397.16" width="90" height="100" as="geometry" />
        </mxCell>
        <mxCell id="emS_NjglVz8rNLvYVVVI-188" value="" style="html=1;whiteSpace=wrap;shape=isoCube2;backgroundOutline=1;isoAngle=15;" vertex="1" parent="1">
          <mxGeometry x="2846.57" y="418.16" width="90" height="100" as="geometry" />
        </mxCell>
        <mxCell id="emS_NjglVz8rNLvYVVVI-189" value="" style="html=1;whiteSpace=wrap;shape=isoCube2;backgroundOutline=1;isoAngle=15;" vertex="1" parent="1">
          <mxGeometry x="2937.57" y="419.16" width="90" height="100" as="geometry" />
        </mxCell>
        <mxCell id="emS_NjglVz8rNLvYVVVI-190" value="" style="html=1;whiteSpace=wrap;shape=isoCube2;backgroundOutline=1;isoAngle=15;strokeColor=#10739e;fillColor=#b1ddf0;strokeWidth=3;dashed=1;" vertex="1" parent="1">
          <mxGeometry x="2890.57" y="447.16" width="90" height="100" as="geometry" />
        </mxCell>
        <mxCell id="emS_NjglVz8rNLvYVVVI-191" value="&lt;font size=&quot;1&quot; face=&quot;Comic Sans MS&quot;&gt;&lt;b style=&quot;font-size: 16px;&quot;&gt;Commutate&lt;/b&gt;&lt;/font&gt;" style="html=1;whiteSpace=wrap;shape=label;backgroundOutline=1;isoAngle=15;rounded=1;strokeWidth=2;fillWeight=4;hachureGap=8;hachureAngle=45;fillColor=#b0e3e6;sketch=1;arcSize=50;strokeColor=#0e8088;dashed=1;" vertex="1" parent="1">
          <mxGeometry x="3096.57" y="445.6000000000001" width="90" height="30" as="geometry" />
        </mxCell>
        <mxCell id="emS_NjglVz8rNLvYVVVI-192" value="&lt;font color=&quot;#009999&quot; size=&quot;1&quot; face=&quot;Comic Sans MS&quot;&gt;&lt;b style=&quot;&quot;&gt;Commutate&lt;br&gt;&lt;/b&gt;&lt;/font&gt;" style="html=1;whiteSpace=wrap;shape=label;backgroundOutline=1;isoAngle=15;rounded=1;strokeWidth=2;fillWeight=4;hachureGap=8;hachureAngle=45;fillColor=none;sketch=1;arcSize=50;strokeColor=none;" vertex="1" parent="1">
          <mxGeometry x="2850" y="335.6" width="160" height="30" as="geometry" />
        </mxCell>
        <mxCell id="emS_NjglVz8rNLvYVVVI-194" value="&lt;font size=&quot;1&quot; style=&quot;&quot; face=&quot;Comic Sans MS&quot;&gt;&lt;b style=&quot;&quot;&gt;Diagonal&lt;/b&gt;&lt;/font&gt;" style="html=1;whiteSpace=wrap;shape=label;backgroundOutline=1;isoAngle=15;rounded=1;strokeWidth=2;fillWeight=4;hachureGap=8;hachureAngle=45;fillColor=#fff2cc;sketch=1;arcSize=50;strokeColor=#d6b656;dashed=1;" vertex="1" parent="1">
          <mxGeometry x="2696.57" y="504.15999999999997" width="90" height="30" as="geometry" />
        </mxCell>
        <mxCell id="emS_NjglVz8rNLvYVVVI-195" value="&lt;font face=&quot;Comic Sans MS&quot; style=&quot;font-size: 20px;&quot;&gt;&lt;b&gt;Restart&lt;/b&gt;&lt;/font&gt;" style="html=1;whiteSpace=wrap;shape=label;backgroundOutline=1;isoAngle=15;rounded=1;strokeWidth=2;fillWeight=4;hachureGap=8;hachureAngle=45;fillColor=#fad9d5;sketch=1;arcSize=50;strokeColor=#ae4132;dashed=1;" vertex="1" parent="1">
          <mxGeometry x="2895.81" y="617.04" width="90" height="30" as="geometry" />
        </mxCell>
        <mxCell id="emS_NjglVz8rNLvYVVVI-196" value="&lt;font size=&quot;1&quot; face=&quot;Comic Sans MS&quot;&gt;&lt;b style=&quot;font-size: 16px;&quot;&gt;Click Again?&lt;/b&gt;&lt;/font&gt;" style="html=1;whiteSpace=wrap;shape=label;backgroundOutline=1;isoAngle=15;rounded=1;strokeWidth=2;fillWeight=4;hachureGap=8;hachureAngle=45;fillColor=#b0e3e6;sketch=1;arcSize=50;strokeColor=#0e8088;dashed=1;" vertex="1" parent="1">
          <mxGeometry x="2950" y="482.16" width="120" height="27.84" as="geometry" />
        </mxCell>
        <mxCell id="emS_NjglVz8rNLvYVVVI-197" value="" style="endArrow=none;html=1;rounded=0;exitX=-0.004;exitY=0.604;exitDx=0;exitDy=0;exitPerimeter=0;entryX=1.006;entryY=0.605;entryDx=0;entryDy=0;entryPerimeter=0;" edge="1" parent="1">
          <mxGeometry width="50" height="50" relative="1" as="geometry">
            <mxPoint x="1748.3999999999999" y="970" as="sourcePoint" />
            <mxPoint x="2071.6" y="971.7600000000002" as="targetPoint" />
          </mxGeometry>
        </mxCell>
        <mxCell id="emS_NjglVz8rNLvYVVVI-198" value="" style="endArrow=none;html=1;rounded=0;exitX=-0.004;exitY=0.604;exitDx=0;exitDy=0;exitPerimeter=0;entryX=1.006;entryY=0.605;entryDx=0;entryDy=0;entryPerimeter=0;" edge="1" parent="1">
          <mxGeometry width="50" height="50" relative="1" as="geometry">
            <mxPoint x="2178.47" y="950" as="sourcePoint" />
            <mxPoint x="2501.67" y="951.7600000000002" as="targetPoint" />
          </mxGeometry>
        </mxCell>
        <mxCell id="emS_NjglVz8rNLvYVVVI-199" value="" style="endArrow=none;html=1;rounded=0;exitX=-0.004;exitY=0.604;exitDx=0;exitDy=0;exitPerimeter=0;entryX=1.006;entryY=0.605;entryDx=0;entryDy=0;entryPerimeter=0;" edge="1" parent="1">
          <mxGeometry width="50" height="50" relative="1" as="geometry">
            <mxPoint x="2182.5" y="504.16" as="sourcePoint" />
            <mxPoint x="2505.7000000000003" y="505.92000000000024" as="targetPoint" />
          </mxGeometry>
        </mxCell>
        <mxCell id="emS_NjglVz8rNLvYVVVI-200" value="" style="endArrow=none;html=1;rounded=0;exitX=-0.004;exitY=0.604;exitDx=0;exitDy=0;exitPerimeter=0;entryX=1.006;entryY=0.605;entryDx=0;entryDy=0;entryPerimeter=0;" edge="1" parent="1">
          <mxGeometry width="50" height="50" relative="1" as="geometry">
            <mxPoint x="1746.7999999999997" y="495.2" as="sourcePoint" />
            <mxPoint x="2070" y="496.9600000000002" as="targetPoint" />
          </mxGeometry>
        </mxCell>
      </root>
    </mxGraphModel>
  </diagram>
</mxfile>
